<svg width="30" height="30" viewBox="0 0 30 30" fill="none" xmlns="http://www.w3.org/2000/svg">
<path d="M20.75 13.6L18.975 11.825L13.675 17.1375L11.025 14.475L9.25 16.25L13.675 20.675L20.75 13.6Z" fill="#B78FAF"/>
<path d="M23.75 5H6.25C5.58696 5 4.95107 5.26339 4.48223 5.73223C4.01339 6.20107 3.75 6.83696 3.75 7.5V22.5C3.75 23.163 4.01339 23.7989 4.48223 24.2678C4.95107 24.7366 5.58696 25 6.25 25H23.75C25.125 25 26.25 23.875 26.25 22.5V7.5C26.25 6.83696 25.9866 6.20107 25.5178 5.73223C25.0489 5.26339 24.413 5 23.75 5ZM23.75 22.5H6.25V10H23.75V22.5Z" fill="#B78FAF"/>
</svg>
