<svg width="30" height="30" viewBox="0 0 30 30" fill="none" xmlns="http://www.w3.org/2000/svg">
<path d="M13.75 7.5H11.25V5H13.75V7.5ZM18.75 5H16.25V7.5H18.75V5ZM11.25 17.5H13.75V15H11.25V17.5ZM23.75 12.5V10H21.25V12.5H23.75ZM23.75 17.5V15H21.25V17.5H23.75ZM16.25 17.5H18.75V15H16.25V17.5ZM23.75 5H21.25V7.5H23.75V5ZM16.25 10V7.5H13.75V10H16.25ZM8.75 12.5V10H11.25V7.5H8.75V5H6.25V25H8.75V15H11.25V12.5H8.75ZM18.75 15H21.25V12.5H18.75V15ZM13.75 12.5V15H16.25V12.5H13.75ZM11.25 10V12.5H13.75V10H11.25ZM16.25 12.5H18.75V10H16.25V12.5ZM18.75 7.5V10H21.25V7.5H18.75Z" fill="#B78FAF"/>
</svg>
