<svg width="30" height="30" viewBox="0 0 30 30" fill="none" xmlns="http://www.w3.org/2000/svg">
<path d="M11.25 26.25C11.25 26.9375 11.8125 27.5 12.5 27.5H17.5C18.1875 27.5 18.75 26.9375 18.75 26.25V25H11.25V26.25ZM15 2.5C10.175 2.5 6.25 6.425 6.25 11.25C6.25 14.225 7.7375 16.8375 10 18.425V21.25C10 21.9375 10.5625 22.5 11.25 22.5H18.75C19.4375 22.5 20 21.9375 20 21.25V18.425C22.2625 16.8375 23.75 14.225 23.75 11.25C23.75 6.425 19.825 2.5 15 2.5ZM18.5625 16.375L17.5 17.125V20H12.5V17.125L11.4375 16.375C10.6096 15.8007 9.93282 15.0347 9.46487 14.1423C8.99691 13.2499 8.75166 12.2576 8.75 11.25C8.75 7.8 11.55 5 15 5C18.45 5 21.25 7.8 21.25 11.25C21.25 13.2875 20.25 15.2 18.5625 16.375Z" fill="#B78FAF"/>
</svg>
